<!DOCTYPE svg PUBLIC "-//W3C//DTD SVG 20010904//EN" "http://www.w3.org/TR/2001/REC-SVG-20010904/DTD/svg10.dtd">
<svg version="1.0" xmlns="http://www.w3.org/2000/svg" width="310px" height="310px" viewBox="0 0 3100 3100" preserveAspectRatio="xMidYMid meet">
<g id="layer1" fill="#000" stroke="none">
 <path d="M1315 2834 c-169 -27 -358 -118 -478 -233 -176 -167 -272 -402 -271 -666 0 -104 18 -244 30 -233 2 2 15 76 29 164 35 215 58 303 107 404 35 73 56 100 152 195 95 95 123 117 197 152 133 64 197 83 287 83 43 0 104 -7 136 -15 199 -52 376 -230 393 -396 20 -195 -122 -392 -322 -445 -77 -21 -204 -18 -269 6 -142 54 -221 251 -157 395 46 104 113 147 241 153 75 3 90 1 130 -20 28 -15 58 -43 78 -72 27 -40 32 -58 32 -105 0 -66 -24 -112 -70 -136 -61 -31 -101 11 -79 83 11 37 10 44 -6 62 -26 29 -59 25 -89 -11 -32 -37 -33 -74 -5 -138 36 -85 111 -122 191 -95 95 31 168 143 168 257 0 100 -77 209 -185 265 -39 20 -69 27 -137 30 -81 4 -91 2 -153 -26 -87 -41 -166 -121 -208 -209 -29 -62 -32 -76 -32 -168 0 -92 2 -104 30 -155 176 -320 625 -326 858 -11 159 216 146 450 -38 649 -91 99 -221 182 -333 216 -57 16 -178 27 -227 20z"/>
 <path d="M2280 2154 c9 -11 56 -66 106 -124 139 -161 171 -205 214 -293 64 -131 94 -326 70 -468 -15 -87 -63 -241 -89 -282 -33 -52 -124 -138 -183 -172 -136 -80 -328 -104 -449 -57 -165 65 -265 254 -238 449 20 144 141 306 254 339 115 33 242 -2 320 -88 104 -115 97 -261 -17 -377 -67 -68 -163 -89 -243 -52 -98 44 -138 162 -70 207 32 21 59 11 85 -31 24 -39 37 -45 68 -34 37 14 49 53 29 95 -24 49 -110 89 -170 80 -89 -15 -138 -73 -139 -166 0 -112 66 -218 164 -260 73 -31 199 -26 275 13 70 36 138 109 165 177 28 73 31 212 5 285 -42 118 -143 220 -247 249 -374 105 -703 -300 -566 -696 47 -135 124 -228 237 -285 86 -44 161 -57 289 -49 153 8 250 39 376 118 106 68 209 243 256 438 27 114 27 276 -1 381 -66 249 -256 490 -473 600 -39 19 -41 20 -28 3z"/>
 <path d="M775 1678 c-96 -13 -178 -59 -276 -157 -74 -74 -94 -101 -138 -191 -103 -209 -105 -372 -6 -571 128 -260 304 -405 585 -481 120 -32 324 -32 458 1 51 13 91 25 89 28 -3 2 -90 11 -194 19 -103 7 -213 19 -243 25 -142 27 -247 79 -362 179 -98 84 -144 145 -206 269 -55 110 -57 116 -60 206 -5 118 9 186 60 287 50 100 138 192 223 234 53 26 70 29 150 29 103 -1 182 -27 259 -86 131 -101 205 -313 162 -465 -15 -49 -28 -69 -75 -114 -67 -65 -129 -90 -217 -90 -89 0 -146 23 -197 80 -51 57 -72 117 -71 205 1 105 57 180 156 206 58 16 116 1 153 -39 30 -32 32 -65 5 -92 -23 -23 -24 -23 -69 -10 -42 12 -67 0 -73 -35 -11 -57 58 -97 129 -75 187 60 172 267 -25 345 -30 12 -63 16 -116 13 -66 -3 -80 -7 -130 -42 -140 -96 -192 -286 -119 -430 95 -188 337 -285 516 -207 53 23 147 107 182 161 122 193 85 449 -90 626 -134 135 -291 194 -460 172z"/>
 </g>

</svg>
