<?xml version="1.0" encoding="utf-8"?>
<svg width="1024px" height="1024px" viewBox="486 721 9409 8970" preserveAspectRatio="xMidYMid meet" xmlns="http://www.w3.org/2000/svg">
  <g id="layer1" fill="#000000" stroke="none">
    <path d="M5086 9428 c-23 -54 -1084 -2279 -1088 -2283 -2 -2 -301 101 -663 230 -389 138 -664 230 -669 225 -5 -5 88 -271 227 -647 130 -351 237 -644 239 -652 2 -9 -365 -183 -1166 -552 -643 -296 -1174 -543 -1180 -549 -6 -6 -6 -13 0 -19 5 -4 533 -248 1174 -541 641 -293 1169 -536 1174 -540 4 -5 -98 -296 -228 -649 -130 -352 -236 -645 -236 -650 0 -5 3 -12 8 -14 4 -3 313 104 687 238 589 210 681 240 688 226 4 -9 245 -531 535 -1161 295 -639 533 -1145 540 -1145 7 0 249 515 549 1170 294 644 536 1171 538 1173 1 1 305 -110 676 -248 409 -151 677 -246 683 -240 7 7 -238 656 -501 1326 -2 6 503 235 1177 534 650 288 1189 529 1198 536 11 8 14 16 7 22 -5 5 -543 244 -1195 531 -652 288 -1187 525 -1189 527 -2 2 109 299 248 660 139 361 250 663 247 671 -4 10 -12 13 -24 8 -174 -72 -1307 -486 -1309 -479 -31 78 -1112 2319 -1120 2321 -7 3 -19 -11 -27 -29z m504 -2413 c232 -462 416 -833 407 -825 -44 44 -977 1245 -974 1254 2 6 34 102 72 213 38 111 70 201 70 200 1 -1 192 -380 425 -842z m-1465 -944 c-6 -5 -291 -222 -635 -481 -344 -260 -630 -476 -636 -481 -10 -8 -440 128 -431 137 4 4 1699 831 1707 833 2 1 0 -3 -5 -8z m3493 -846 c112 -37 202 -69 199 -71 -2 -2 -387 -190 -857 -419 -469 -228 -850 -411 -846 -407 33 33 1283 969 1291 967 5 -2 101 -33 213 -70z m-2879 -1644 c265 -338 480 -619 478 -625 -2 -6 -34 -102 -72 -213 -38 -111 -70 -201 -70 -200 -18 25 -843 1677 -832 1667 8 -8 231 -291 496 -629z"/>
  </g>
</svg>