<?xml version="1.0" encoding="utf-8"?>
<svg width="236px" height="288px" viewBox="-49 -79 2475 3038" preserveAspectRatio="xMidYMid meet" xmlns="http://www.w3.org/2000/svg">
  <g id="layer1" fill="#010101" stroke="none">
    <path d="M 634 2861.739 C 610.739 2863.319 565.58 2855.681 539.58 2851.42 C 504.054 2845.597 472 2840 413 2811 C 245 2728 182 2603 196 2380 C 201 2312 209 2272 225 2240 C 260 2169 336 2065 372 2040 C 414 2010 664 1745 689 1705 C 717 1659 818 1552 865 1520 C 888 1504 934 1478 967 1461 C 1021 1433 1037 1430 1114 1430 C 1221 1430 1278 1444 1352 1487 C 1428 1531 1456 1562 1515 1660 C 1684 1941 1724.079 1955.254 1863 2050 C 1970.19 2123.105 2017 2200 2052 2295 C 2074 2355 2104.601 2492.526 2062 2592 C 2030.861 2664.709 2028 2663 2000 2693 C 1950 2748 1888 2785 1795 2816 C 1708 2846 1536 2832 1410 2786 C 1391 2779 1324 2767 1263 2760 C 1167 2748 1135 2749 1042 2762 C 948 2775 926 2781 885 2810 C 843 2839 824 2837.898 750 2852 C 703.664 2860.83 653.841 2862 634 2861.739 Z"/>
    <path d="M1903 1990 c-82 -17 -142 -50 -173 -97 -17 -24 -30 -47 -30 -50 0 -4 -6 -14 -14 -22 -23 -26 -56 -137 -56 -190 0 -75 18 -145 62 -240 136 -291 179 -367 229 -404 38 -28 113 -30 162 -5 77 39 152 140 210 283 69 171 79 249 52 396 -21 110 -37 143 -104 209 -69 68 -114 95 -190 115 -64 16 -85 17 -148 5z"/>
    <path d="M 245 1906 C 164 1879 130 1859 99 1820 C 64 1777 32.681 1779.226 16.915 1625.85 C 2.419 1484.833 32 1373 65 1285 C 135 1093 229 980 318 980 C 352 980 435 1043 459 1089 C 467 1103 497 1146 526 1183 C 585 1259 633 1352 649 1420 C 668 1500 663 1605 638 1658 C 586 1770 495 1875 423 1906 C 383 1923 298 1923 245 1906 Z"/>
    <path d="M1348 1244 c-53 -17 -98 -66 -144 -154 -26 -52 -28 -63 -28 -180 1 -69 6 -141 12 -160 7 -19 16 -119 20 -220 10 -209 20 -244 81 -286 39 -26 100 -32 161 -14 74 22 164 111 201 200 5 14 27 59 48 100 67 131 85 195 85 290 -2 223 -87 367 -246 418 -76 25 -123 26 -190 6z"/>
    <path d="M 676 1165 C 528 1063 481 959 480 732 C 480 639 482.458 585.13 527.841 499.117 C 613.569 336.64 708.737 304.666 712 302 C 766.398 257.556 923 184 967 233 C 1007 276 1028 337 1054 485 C 1095 724 1086 1054 1036 1109 C 990 1160 946 1179 855 1190 C 733 1204 732 1203 676 1165 Z"/>
    <path d="M194 965 c-4 -9 -1 -50 5 -91 12 -83 45 -140 88 -150 32 -8 35 -3 50 67 6 33 19 74 27 91 17 34 21 64 8 72 -4 2 -26 -1 -50 -7 -37 -10 -45 -9 -71 11 -35 26 -49 28 -57 7z"/>
    <path d="M1936 921 c-3 -4 1 -45 7 -91 13 -92 29 -109 68 -74 26 24 91 144 85 159 -4 13 -153 18 -160 6z"/>
    <path d="M1435 200 c-11 -5 -34 -9 -51 -9 -43 -1 -55 -19 -57 -88 -1 -68 5 -83 37 -83 32 0 55 23 100 98 48 81 38 111 -29 82z"/>
    <path d="M955 180 c-11 -4 -36 -6 -56 -3 -22 3 -39 1 -44 -6 -16 -27 85 -171 121 -171 32 0 43 29 38 98 -8 99 -11 102 -59 82z"/>
  </g>
</svg>