<?xml version="1.0" encoding="utf-8"?>
<svg width="216px" height="195px" viewBox="242 239 1697 1672" preserveAspectRatio="xMidYMid meet" xmlns="http://www.w3.org/2000/svg">
  <g id="layer1" fill="#000" stroke="none" transform="matrix(-1, 0, 0, -1, 2195, 2120)">
    <path d="M978 1889 c-90 -9 -212 -48 -288 -92 -120 -68 -254 -227 -305 -359 -20 -54 -17 -79 20 -166 49 -117 68 -214 63 -326 -7 -160 -63 -268 -178 -349 -30 -21 -55 -43 -55 -50 0 -17 88 -21 160 -7 83 16 165 62 226 127 50 52 53 54 67 37 50 -66 99 -236 109 -381 4 -68 10 -93 19 -93 19 0 109 191 128 270 42 177 30 283 -47 429 -44 84 -50 103 -51 156 0 201 227 313 387 191 57 -44 89 -109 90 -186 0 -55 -5 -72 -52 -163 -41 -80 -55 -118 -63 -180 -19 -133 13 -286 90 -432 53 -100 67 -98 75 12 10 143 58 309 109 377 14 17 17 15 66 -36 87 -92 195 -138 325 -138 84 0 87 14 12 63 -136 91 -204 255 -184 446 7 61 49 201 90 298 50 121 -178 412 -393 499 -120 49 -276 69 -420 53z"/>
  </g>
</svg>