<?xml version="1.0" encoding="utf-8"?>
<svg width="1112px" height="1016px" viewBox="-608 -486 12378 11591" preserveAspectRatio="xMidYMid meet" xmlns="http://www.w3.org/2000/svg">
  <g id="layer1" fill="#000000" stroke="none">
    <path d="M5386 9453 c-8 -891 -23 -1442 -41 -1603 -8 -69 -15 -129 -15 -134 0 -10 -1385 -1 -2065 14 -231 5 -692 14 -1025 20 -333 6 -651 13 -707 16 l-103 6 0 259 0 259 1663 2 1662 3 0 340 0 340 -1833 3 -1832 2 2 258 3 257 405 12 c223 6 603 17 845 23 242 7 881 15 1420 19 l979 6 9 40 c5 22 9 147 10 278 2 226 1 239 -17 253 -17 12 -166 14 -1000 14 -1027 -1 -3243 -32 -3256 -47 -14 -15 -40 -222 -40 -320 0 -265 57 -819 126 -1228 53 -319 110 -547 251 -1020 91 -305 201 -636 693 -2085 210 -619 462 -1361 560 -1650 567 -1672 782 -2256 970 -2629 106 -213 181 -318 384 -542 l53 -59 554 -20 c305 -11 689 -24 854 -30 861 -31 2292 1 2500 55 155 41 208 95 410 420 160 257 203 332 301 528 287 571 519 1261 928 2758 282 1031 459 1563 803 2419 362 899 597 1618 653 2000 42 288 48 684 15 983 -16 140 -69 395 -85 411 -19 19 -1836 54 -3064 60 l-888 4 7 -202 c4 -110 10 -248 14 -306 l6 -105 280 -6 c154 -4 928 -10 1719 -14 l1439 -8 -6 -166 c-6 -164 -15 -240 -37 -320 l-11 -41 -1672 0 c-1288 0 -1676 -3 -1685 -12 -9 -9 -12 -103 -12 -360 0 -308 2 -349 16 -355 15 -6 2636 31 2979 43 l180 5 -12 -183 c-14 -193 -36 -375 -48 -386 -13 -13 -629 -14 -1395 -2 -1699 26 -2381 38 -2384 41 -2 2 3 216 10 474 12 448 27 1068 40 1648 l5 267 -254 0 -254 0 -7 -707z m359 -2763 c355 -33 658 -104 870 -205 138 -66 302 -193 371 -286 20 -28 35 -52 33 -54 -8 -7 -176 26 -394 78 -247 60 -338 78 -510 101 -579 78 -1141 16 -1531 -168 -386 -183 -756 -583 -918 -992 -156 -396 -169 -1168 -25 -1599 76 -228 223 -498 370 -680 195 -242 420 -421 704 -560 334 -164 669 -236 1040 -222 308 12 566 76 820 203 474 239 854 752 972 1313 23 110 27 150 27 316 0 160 -3 206 -22 292 -66 304 -212 574 -426 789 -61 61 -140 130 -176 153 -138 89 -309 156 -509 198 -114 24 -147 27 -346 27 -174 1 -241 -3 -320 -18 -198 -37 -374 -110 -491 -205 -327 -265 -389 -881 -126 -1267 22 -33 82 -100 134 -149 149 -143 250 -186 438 -186 174 0 290 44 398 153 110 110 159 256 148 443 -7 104 -27 168 -57 173 -10 2 -36 -20 -65 -55 -174 -206 -297 -273 -476 -261 -187 14 -282 143 -283 383 0 198 86 332 271 425 106 52 194 71 359 77 370 13 557 -98 681 -402 59 -144 77 -253 71 -435 -4 -122 -10 -176 -30 -251 -100 -382 -376 -687 -697 -769 -234 -60 -603 -33 -836 60 -164 65 -342 187 -495 340 -113 113 -167 186 -205 281 -90 221 -139 636 -100 849 83 449 378 825 821 1045 154 76 260 114 416 149 543 121 1096 1 1550 -335 102 -76 270 -237 352 -339 208 -257 364 -588 427 -905 28 -141 38 -429 20 -583 -21 -188 -97 -447 -178 -607 -109 -217 -313 -479 -556 -712 -225 -216 -359 -310 -631 -443 -377 -184 -422 -193 -985 -194 -301 -1 -388 2 -495 17 -548 77 -928 257 -1298 617 -123 119 -218 231 -304 360 -255 382 -430 900 -483 1430 -15 148 -15 475 0 610 63 589 341 1139 749 1483 336 283 802 469 1296 516 120 12 505 12 630 1z"/>
  </g>
</svg>