<?xml version="1.0" encoding="utf-8"?>
<svg width="310px" height="310px" viewBox="0 0 3100 3100" preserveAspectRatio="xMidYMid meet" xmlns="http://www.w3.org/2000/svg">
  <g id="layer1" fill="#000" stroke="none">
    <g>
      <path d="M 216 2793 C 194 2606 202 2429 241 2215 C 283 1992 361 1737 487 1415 C 528 1311 593 1142 630 1040 C 668 938 719 801 745 735 C 771 669 811 565 835 504 C 878 390 916 325 965 280 L 992 255 L 1537 255 L 2082 255 L 2141 318 C 2174 353 2216 413 2237 453 C 2281 540 2404 876 2472 1095 C 2500 1183 2574 1397 2637 1570 C 2765 1921 2830 2135 2861 2307 C 2878 2404 2881 2454 2878 2614 C 2876 2719 2871 2811 2867 2818 C 2861 2827 2726 2830 2249 2830 L 1640 2830 L 1640 2693 C 1640 2617 1637 2451 1633 2324 L 1627 2093 L 2074 2086 C 2320 2081 2524 2081 2528 2084 C 2531 2088 2536 2121 2538 2157 L 2543 2223 L 2166 2217 L 1790 2211 L 1790 2295 L 1790 2380 L 2189 2380 L 2588 2380 L 2594 2403 C 2597 2415 2600 2444 2600 2467 L 2600 2510 L 2193 2512 L 1785 2515 L 1782 2588 L 1779 2660 L 1982 2659 C 2094 2658 2304 2655 2450 2651 L 2715 2645 L 2727 2590 C 2743 2510 2742 2371 2725 2285 C 2707 2197 2639 1993 2585 1865 C 2508 1680 2448 1503 2394 1302 C 2275 858 2205 663 2107 509 C 2021 373 2049 386 1828 376 C 1704 370 1533 370 1352 377 L 1070 387 L 1035 426 C 960 511 923 604 703 1255 C 628 1475 535 1752 494 1870 C 454 1988 410 2137 396 2202 C 367 2333 344 2557 354 2612 L 360 2647 L 861 2655 C 1142 2659 1365 2659 1369 2654 C 1373 2649 1374 2617 1372 2583 L 1368 2520 L 1146 2520 C 1023 2520 828 2517 712 2513 L 500 2507 L 500 2443 L 500 2380 L 935 2380 L 1370 2380 L 1370 2300 L 1370 2220 L 975 2220 L 580 2220 L 580 2157 L 580 2093 L 882 2087 C 1048 2083 1256 2080 1346 2080 L 1509 2080 L 1514 2123 C 1518 2146 1521 2317 1523 2503 L 1525 2840 L 873 2840 L 222 2840 L 216 2793 Z"/>
      <path d="M 1443 1840 C 1225 1813 1073 1697 1000 1501 C 919 1286 985 966 1144 806 C 1265 683 1397 636 1603 642 C 1723 645 1727 646 1814 687 C 1885 721 1917 745 1980 807 C 2072 900 2114 970 2136 1067 C 2193 1322 2009 1590 1751 1630 C 1527 1665 1314 1527 1286 1328 C 1278 1275 1294 1171 1317 1125 C 1341 1077 1418 1012 1479 988 C 1556 958 1660 958 1715 987 C 1837 1052 1890 1215 1829 1337 C 1800 1396 1757 1420 1682 1420 C 1559 1420 1492 1344 1530 1245 C 1553 1185 1650 1192 1694 1256 C 1720 1295 1730 1287 1730 1224 C 1730 1151 1679 1100 1606 1100 C 1557 1100 1527 1113 1488 1154 C 1401 1243 1413 1424 1509 1487 C 1605 1551 1787 1546 1891 1477 C 1945 1442 1996 1372 2021 1298 C 2069 1160 2020 989 1898 869 C 1774 745 1551 716 1371 800 C 1245 859 1156 961 1108 1098 C 1079 1181 1077 1350 1103 1444 C 1131 1547 1223 1658 1322 1707 C 1444 1768 1630 1776 1818 1726 C 1868 1713 1910 1705 1910 1709 C 1910 1723 1857 1771 1821 1789 C 1733 1834 1573 1855 1443 1840 Z"/>
    </g>
  </g>
</svg>