<?xml version="1.0" encoding="utf-8"?>
<svg width="1128px" height="1096px" viewBox="218 587 9971 9618" preserveAspectRatio="xMidYMid meet" xmlns="http://www.w3.org/2000/svg">
  <g id="layer1" fill="#000000" stroke="none">
    <path d="M4969 8446 c-3 -3 -59 -11 -125 -16 -65 -6 -148 -15 -184 -20 -36 -6 -85 -13 -110 -16 -25 -3 -54 -9 -65 -14 -11 -5 -38 -11 -60 -15 -22 -3 -57 -8 -78 -11 -20 -4 -40 -10 -43 -15 -3 -5 -18 -9 -34 -9 -16 0 -32 -4 -35 -10 -3 -5 -19 -10 -35 -10 -16 0 -32 -4 -35 -10 -3 -5 -19 -10 -35 -10 -16 0 -32 -4 -35 -10 -3 -5 -16 -10 -29 -10 -12 0 -26 -4 -31 -8 -6 -5 -44 -19 -85 -32 -41 -13 -79 -27 -85 -32 -5 -4 -17 -8 -26 -8 -9 0 -37 -10 -61 -21 -23 -12 -52 -25 -63 -29 -11 -5 -45 -19 -75 -33 -30 -14 -73 -33 -95 -42 -63 -27 -136 -63 -180 -88 -22 -13 -69 -39 -105 -57 -36 -19 -83 -46 -105 -60 -22 -15 -56 -34 -76 -43 -20 -9 -42 -23 -49 -32 -7 -8 -16 -15 -21 -15 -4 0 -70 -42 -145 -92 -75 -51 -144 -97 -153 -103 -8 -5 -43 -31 -78 -57 -34 -27 -65 -48 -69 -48 -4 0 -26 -17 -50 -37 -23 -21 -66 -56 -94 -78 -55 -42 -112 -90 -249 -208 -109 -93 -535 -519 -628 -628 -121 -140 -166 -194 -213 -254 -25 -32 -60 -74 -77 -95 -18 -21 -33 -40 -33 -44 0 -4 -23 -36 -50 -71 -28 -35 -50 -68 -50 -73 0 -5 -9 -17 -20 -27 -11 -10 -20 -23 -20 -30 0 -7 -9 -20 -20 -30 -11 -10 -20 -23 -20 -30 0 -7 -9 -20 -20 -30 -11 -10 -20 -22 -20 -28 0 -5 -10 -23 -22 -39 -32 -46 -158 -299 -158 -319 0 -10 -4 -20 -9 -23 -5 -3 -11 -20 -14 -38 -4 -18 -9 -48 -13 -66 -13 -68 58 -264 156 -427 17 -27 33 -57 37 -65 14 -32 208 -316 285 -418 448 -591 1014 -1125 1623 -1532 91 -61 181 -119 200 -130 19 -11 52 -29 73 -41 20 -12 42 -25 47 -29 9 -7 70 -39 240 -128 59 -31 253 -122 260 -122 3 0 27 -9 53 -21 26 -12 58 -26 72 -31 14 -6 33 -14 42 -19 10 -5 25 -9 33 -9 8 0 23 -4 33 -10 15 -8 58 -23 237 -80 52 -16 227 -60 300 -74 67 -14 120 -23 270 -47 175 -27 665 -21 890 11 39 6 90 13 115 16 25 3 54 9 65 14 11 5 34 11 50 14 29 5 76 16 160 37 22 6 55 13 73 16 18 3 35 9 38 14 3 5 14 9 25 9 10 0 27 4 37 9 9 5 37 15 62 22 25 7 49 16 54 21 6 4 20 8 32 8 13 0 26 5 29 10 3 6 14 10 24 10 9 0 36 9 59 20 22 11 45 20 51 20 5 0 29 10 53 21 23 12 52 25 63 29 44 17 443 216 480 240 22 15 56 34 76 43 20 9 42 23 49 32 7 8 17 15 22 15 5 0 29 13 53 30 24 17 48 30 53 30 5 0 17 9 27 20 10 11 23 20 30 20 7 0 20 9 30 20 10 11 22 20 26 20 4 0 37 21 73 47 35 27 110 81 164 121 55 41 108 82 118 93 9 10 22 19 27 19 5 0 31 19 57 43 26 23 78 67 115 97 228 186 626 584 815 815 30 37 74 89 98 115 23 26 42 51 42 57 0 5 14 22 30 38 17 16 30 33 30 38 0 5 14 26 31 46 43 51 129 170 129 180 0 4 9 16 20 26 11 10 20 24 20 30 0 7 7 18 15 25 9 7 25 33 35 56 11 24 24 45 29 48 14 9 137 263 162 336 36 103 32 238 -11 355 -17 47 -136 284 -162 322 -15 23 -28 44 -28 48 0 3 -33 53 -73 111 -39 58 -77 115 -83 125 -6 11 -23 33 -38 48 -14 15 -26 31 -26 35 0 8 -50 70 -117 146 -24 26 -43 51 -43 55 0 38 -827 865 -865 865 -4 0 -29 19 -55 43 -81 71 -138 117 -148 117 -5 0 -15 7 -22 16 -15 17 -127 104 -135 104 -3 0 -35 23 -70 50 -35 28 -68 50 -73 50 -5 0 -17 9 -27 20 -10 11 -23 20 -30 20 -7 0 -20 9 -30 20 -10 11 -22 20 -28 20 -5 0 -29 14 -54 30 -24 17 -46 30 -49 30 -3 0 -25 14 -49 30 -24 17 -46 30 -50 30 -3 0 -24 12 -48 27 -23 15 -83 48 -134 74 -51 26 -114 59 -140 72 -99 52 -259 127 -271 127 -6 0 -27 9 -47 20 -20 11 -42 20 -50 20 -8 0 -30 9 -50 20 -20 11 -44 20 -55 20 -10 0 -22 5 -25 10 -3 6 -17 10 -30 10 -13 0 -27 5 -30 10 -3 6 -17 10 -30 10 -13 0 -27 5 -30 10 -3 6 -17 10 -30 10 -13 0 -27 5 -30 10 -3 6 -16 10 -27 10 -20 0 -68 13 -113 31 -11 4 -33 10 -50 14 -16 3 -49 10 -72 16 -147 32 -137 30 -303 59 -144 24 -665 52 -681 36z m487 -911 c102 -15 184 -31 279 -56 83 -23 230 -72 240 -80 5 -5 15 -9 23 -9 17 0 253 -114 292 -141 14 -9 44 -27 67 -40 226 -127 595 -496 722 -722 13 -23 31 -53 40 -67 17 -25 115 -224 132 -267 5 -13 13 -33 18 -45 23 -55 71 -207 71 -226 0 -11 4 -23 9 -26 5 -3 11 -23 14 -43 3 -21 11 -63 17 -93 48 -240 48 -640 0 -880 -6 -30 -14 -72 -17 -93 -3 -20 -9 -40 -14 -43 -5 -3 -9 -16 -9 -30 0 -13 -4 -32 -9 -42 -5 -9 -19 -50 -32 -90 -12 -40 -26 -75 -31 -78 -4 -3 -8 -13 -8 -23 0 -16 -21 -63 -83 -186 -35 -70 -76 -146 -94 -173 -10 -15 -22 -34 -28 -43 -34 -55 -64 -96 -79 -108 -9 -7 -16 -19 -16 -25 0 -7 -18 -30 -40 -51 -22 -21 -40 -44 -40 -49 0 -14 -242 -256 -255 -256 -6 0 -29 -18 -50 -40 -21 -22 -44 -40 -50 -40 -6 0 -24 -13 -40 -30 -16 -17 -34 -30 -40 -30 -7 0 -20 -9 -30 -20 -10 -11 -22 -20 -28 -20 -5 0 -22 -9 -37 -20 -66 -47 -334 -180 -362 -180 -8 0 -18 -4 -24 -9 -10 -10 -150 -59 -206 -72 -21 -5 -57 -14 -80 -20 -162 -40 -292 -53 -528 -53 -202 0 -309 8 -440 34 -30 6 -72 14 -93 17 -20 3 -40 9 -43 14 -3 5 -16 9 -30 9 -13 0 -32 4 -42 9 -9 5 -50 19 -90 32 -40 12 -75 26 -78 31 -3 4 -13 8 -24 8 -10 0 -35 8 -57 19 -175 85 -292 148 -314 167 -8 8 -20 14 -26 14 -5 0 -18 9 -28 20 -10 11 -23 20 -30 20 -6 0 -24 13 -40 30 -16 17 -33 30 -38 30 -22 0 -302 268 -388 372 -58 69 -109 137 -109 147 0 4 -9 16 -20 26 -11 10 -20 23 -20 28 0 6 -6 18 -14 26 -22 25 -114 200 -166 316 -33 74 -37 84 -61 160 -12 39 -25 78 -30 87 -5 10 -9 29 -9 42 0 14 -4 28 -10 31 -5 3 -10 21 -10 39 0 17 -4 36 -9 42 -5 5 -12 29 -15 54 -3 25 -11 86 -18 135 -7 50 -12 187 -12 305 0 118 5 256 12 305 7 50 15 110 18 135 3 25 10 49 15 55 5 5 9 24 9 41 0 18 5 36 10 39 6 3 10 16 10 27 0 23 17 81 31 110 5 10 9 24 9 33 0 8 9 30 20 50 11 20 20 42 20 49 0 8 8 31 19 53 85 175 148 292 167 314 8 8 14 20 14 26 0 5 9 18 20 28 11 10 20 23 20 30 0 6 14 24 30 40 17 16 30 33 30 38 0 24 261 303 345 368 28 21 76 59 108 84 31 25 61 45 65 45 5 0 17 9 27 20 10 11 22 20 28 20 5 0 21 8 35 19 67 47 262 146 382 193 14 6 33 14 42 19 10 5 25 9 33 9 8 0 23 4 33 9 29 14 87 31 110 31 11 0 24 5 27 10 3 6 21 10 39 10 17 0 36 4 42 9 9 9 33 13 177 29 42 5 80 12 84 15 13 14 428 7 539 -8z"/>
    <path d="M4975 6560 c-11 -5 -39 -9 -62 -9 -23 -1 -45 -5 -48 -11 -3 -5 -19 -10 -36 -10 -16 0 -37 -4 -47 -9 -9 -5 -37 -15 -62 -22 -46 -14 -221 -99 -275 -134 -63 -41 -113 -82 -193 -160 -141 -136 -222 -254 -299 -435 -8 -19 -19 -43 -24 -52 -5 -10 -9 -27 -9 -37 0 -11 -4 -22 -9 -25 -5 -3 -11 -20 -14 -38 -3 -18 -12 -60 -19 -93 -15 -74 -15 -410 0 -480 33 -152 53 -213 105 -319 154 -317 442 -568 772 -674 87 -28 147 -40 260 -52 133 -15 396 -2 420 21 5 5 24 9 41 9 18 0 36 5 39 10 3 6 14 10 24 10 9 0 36 9 59 20 22 11 45 20 50 20 16 0 154 74 208 111 116 80 221 174 278 247 94 122 105 137 105 145 1 5 14 27 29 50 26 40 40 66 62 122 6 14 14 35 19 48 5 12 15 40 22 62 6 22 15 48 20 57 5 10 9 30 9 46 0 15 4 32 9 38 14 14 23 107 24 254 0 192 -25 339 -84 478 -5 12 -14 34 -20 50 -26 63 -35 79 -61 119 -15 23 -28 46 -28 51 0 5 -9 17 -20 27 -11 10 -20 22 -20 27 0 10 -46 68 -120 150 -100 112 -313 255 -460 308 -19 7 -39 17 -44 22 -6 4 -20 8 -32 8 -13 0 -26 5 -29 10 -3 6 -21 10 -39 10 -17 0 -36 4 -42 9 -5 5 -34 12 -64 16 -90 11 -373 15 -395 5z"/>
  </g>
</svg>
