<!DOCTYPE svg PUBLIC "-//W3C//DTD SVG 20010904//EN" "http://www.w3.org/TR/2001/REC-SVG-20010904/DTD/svg10.dtd">
<svg version="1.0" xmlns="http://www.w3.org/2000/svg" width="310px" height="310px" viewBox="0 0 3100 3100" preserveAspectRatio="xMidYMid meet">
<g id="layer1" fill="#000" stroke="none">
 <path d="M1425 2903 c-290 -25 -598 -191 -686 -370 -22 -44 -24 -60 -24 -208 1 -114 6 -190 20 -265 14 -78 19 -151 20 -283 0 -152 2 -175 14 -160 26 35 61 121 72 179 11 60 9 93 -18 324 -34 298 7 416 186 534 85 56 139 79 248 106 80 21 104 22 303 17 234 -5 330 -21 406 -67 157 -95 262 -254 315 -477 27 -111 23 -141 -41 -368 -73 -261 -83 -319 -77 -444 5 -102 29 -204 40 -171 3 8 8 62 10 120 5 97 11 123 81 340 124 383 136 480 80 649 -99 296 -377 500 -737 540 -93 11 -129 11 -212 4z"/>
 <path d="M1350 2652 c-152 -43 -288 -147 -342 -262 -34 -73 -36 -86 -48 -293 -18 -311 -66 -475 -172 -580 -54 -53 -156 -112 -171 -98 -4 4 -3 37 2 73 8 60 2 170 -15 253 -3 17 -23 89 -45 162 -59 199 -79 291 -79 367 0 87 16 121 115 246 41 52 75 99 75 104 0 5 -20 6 -45 3 -137 -19 -230 -137 -256 -324 -14 -98 1 -192 47 -303 91 -219 89 -210 89 -380 0 -153 -1 -157 -37 -260 -20 -57 -35 -107 -32 -109 9 -9 152 31 210 58 32 15 102 54 154 86 52 32 109 66 127 77 l31 19 6 -58 c14 -137 29 -197 69 -277 35 -72 57 -98 197 -236 86 -85 170 -175 187 -200 82 -122 145 -292 163 -442 14 -114 14 -114 106 -21 119 121 194 321 194 519 0 69 -6 104 -35 194 -47 144 -75 271 -75 344 0 69 24 173 52 230 24 47 30 40 48 -49 58 -301 261 -575 548 -744 29 -17 56 -31 59 -31 9 0 -5 103 -29 214 -17 81 -20 120 -15 215 9 189 55 312 202 536 106 162 118 195 123 346 2 76 -1 149 -8 183 -29 139 -140 290 -255 347 -35 17 -69 29 -75 27 -7 -2 7 -25 33 -53 95 -107 167 -246 186 -362 5 -34 6 -102 1 -160 -9 -115 -24 -151 -129 -313 -183 -280 -237 -487 -195 -745 l7 -40 -52 50 c-100 96 -178 219 -239 375 -21 54 -25 83 -26 170 -1 101 1 111 51 261 29 86 57 189 63 230 26 179 -31 378 -142 495 -62 65 -122 105 -213 140 -61 24 -87 27 -210 30 -113 3 -152 1 -205 -14z m335 -118 c124 -32 208 -101 265 -218 51 -102 66 -200 51 -321 -13 -107 -41 -163 -134 -266 -175 -195 -227 -284 -234 -404 -5 -67 -2 -76 52 -209 68 -166 85 -239 85 -366 0 -129 -46 -336 -72 -328 -6 2 -23 38 -37 79 -50 142 -155 284 -357 485 -240 239 -266 314 -228 666 6 49 4 59 -11 64 -12 5 -23 1 -31 -11 -8 -10 -14 -14 -14 -7 0 15 41 125 50 136 5 4 52 -17 107 -47 54 -31 115 -63 136 -73 20 -10 37 -21 37 -25 0 -3 -12 -33 -26 -65 -34 -78 -43 -186 -21 -271 23 -88 63 -163 190 -352 61 -91 127 -194 147 -229 l37 -64 -5 54 c-7 82 -37 161 -117 308 -96 175 -122 236 -134 308 -12 75 -4 135 25 192 37 73 45 79 125 99 42 9 98 30 124 45 224 132 267 459 83 638 -97 94 -222 128 -332 89 -217 -76 -291 -299 -144 -438 97 -92 251 -110 339 -40 30 23 59 82 59 118 0 39 -30 91 -70 121 -14 10 -50 23 -81 30 -50 10 -60 10 -83 -5 -32 -22 -35 -62 -5 -78 17 -8 31 -8 60 0 63 19 101 -16 80 -72 -13 -34 -46 -50 -97 -49 -49 0 -88 19 -127 60 -69 72 -44 198 47 247 26 14 50 17 117 13 91 -5 126 -18 176 -68 128 -126 99 -382 -52 -467 -89 -50 -241 -51 -339 -3 -106 52 -209 179 -221 274 -9 67 8 202 30 249 42 89 148 172 255 201 73 20 221 20 295 0z"/>
 </g>

</svg>
