<?xml version="1.0" encoding="utf-8"?>
<svg viewBox="319 106 96 96" xmlns="http://www.w3.org/2000/svg">
  <path fill="#0D0F0F" d="M 405.806 171.091 C 402.07 180.003 394.646 184.458 383.531 184.458 C 381.494 184.458 379.285 184.712 376.91 185.22 C 373.346 185.984 371.564 187.048 371.564 188.406 C 371.564 188.83 371.859 189.316 372.455 189.869 C 373.047 190.422 373.559 190.695 373.982 190.695 C 371.859 190.695 373.302 190.759 378.308 190.886 C 383.316 191.013 386.456 191.077 387.73 191.077 C 380.347 195.403 367.998 197.396 350.687 197.058 C 344.999 196.974 340.121 194.47 336.048 189.548 C 332.056 184.879 330.064 179.66 330.064 173.89 C 330.064 167.782 332.121 162.582 336.24 158.295 C 340.353 154.013 345.469 151.868 351.578 151.868 C 352.935 151.868 354.738 152.165 356.988 152.759 C 359.236 153.353 360.744 153.65 361.506 153.65 C 364.645 153.65 368.551 152.357 373.219 149.767 C 377.885 147.179 380.094 145.884 379.84 145.884 C 378.99 154.796 376.02 160.78 370.926 163.832 C 367.278 165.955 365.453 168.033 365.453 170.068 C 365.453 171.341 366.217 172.361 367.744 173.125 C 368.932 173.72 370.246 174.017 371.689 174.017 C 373.896 174.017 376.06 172.661 378.183 169.946 C 380.302 167.228 381.238 164.769 380.984 162.56 C 380.73 160.015 380.9 156.957 381.494 153.396 C 381.662 152.376 382.277 151.126 383.338 149.642 C 384.399 148.156 385.354 147.244 386.203 146.904 C 386.203 147.666 385.928 148.941 385.375 150.722 C 384.822 152.503 384.549 153.822 384.549 154.669 C 384.549 156.536 385.057 157.978 386.076 158.995 C 387.601 158.403 388.959 156.493 390.15 153.266 C 391.166 150.807 391.759 148.43 391.931 146.139 C 388.365 145.969 384.949 144.358 381.683 141.301 C 378.415 138.244 376.783 134.936 376.783 131.373 C 376.783 130.779 376.865 130.185 377.039 129.59 C 377.547 130.354 378.31 131.543 379.328 133.154 C 380.771 135.275 381.875 136.336 382.641 136.336 C 383.657 136.336 384.166 135.275 384.166 133.154 C 384.166 130.439 383.443 127.978 382.002 125.771 C 380.389 123.14 378.309 121.824 375.764 121.824 C 374.575 121.824 372.793 122.461 370.42 123.734 C 368.041 125.005 365.877 125.644 363.928 125.644 C 363.332 125.644 360.699 124.878 356.033 123.351 C 364.263 121.996 368.381 120.765 368.381 119.66 C 368.381 116.775 362.736 114.822 351.451 113.805 C 350.346 113.721 348.31 113.551 345.34 113.295 C 345.678 112.871 348.098 112.404 352.598 111.895 C 356.416 111.473 359.09 111.258 360.616 111.258 C 380.813 111.258 393.628 121.063 399.059 140.666 C 399.993 139.893 400.461 138.6 400.461 136.795 C 400.461 134.471 399.781 131.545 398.424 128.018 C 397.912 126.643 397.106 124.577 396.004 121.825 C 402.961 130.692 406.443 139.095 406.443 147.024 C 406.443 151.202 405.464 154.997 403.513 158.405 C 402.243 160.708 399.863 163.649 396.386 167.231 C 392.906 170.811 390.529 173.583 389.255 175.544 C 393.923 174.273 396.98 173.296 398.423 172.616 C 401.646 171.176 404.573 169.01 407.206 166.124 C 407.206 167.23 406.739 168.886 405.806 171.091 Z M 350.304 121.066 C 350.304 122.591 349.454 123.568 347.759 123.992 L 344.448 124.502 C 343.259 125.096 341.52 127.43 339.229 131.502 C 338.973 130.231 338.592 128.449 338.083 126.156 C 337.319 126.242 336.048 126.92 334.265 128.193 C 333.501 128.787 332.269 129.677 330.572 130.865 C 331.084 127.81 332.779 124.717 335.666 121.572 C 338.721 118.095 341.691 116.355 344.576 116.355 C 348.394 116.355 350.304 117.927 350.304 121.066 Z M 372.454 132.775 C 372.454 134.218 371.669 135.429 370.099 136.404 C 368.529 137.381 366.98 137.869 365.453 137.869 C 363.416 137.869 361.59 136.723 359.98 134.431 C 358.025 131.63 356.033 129.806 353.996 128.954 C 354.42 128.532 354.93 128.319 355.525 128.319 C 356.289 128.319 357.58 128.913 359.406 130.1 C 361.23 131.289 362.396 131.883 362.908 131.883 C 363.332 131.883 364.031 131.289 365.008 130.1 C 365.983 128.912 367.065 128.319 368.254 128.319 C 371.054 128.32 372.454 129.806 372.454 132.775 Z"/>
</svg>