<?xml version="1.0" encoding="utf-8"?>
<svg viewBox="125 123 109 65" xmlns="http://www.w3.org/2000/svg">
  <path fill="#0D0F0F" d="M 177.99 148.818 C 185.179 138.775 193.191 133.75 202.019 133.75 C 207.906 133.75 212.613 135.553 216.111 139.143 C 219.619 142.737 221.375 147.477 221.375 153.368 C 221.375 159.263 219.619 164.065 216.111 167.788 C 212.613 171.513 207.947 173.374 202.146 173.374 C 193.488 173.374 185.431 168.353 177.99 158.306 C 170.369 168.353 162.398 173.374 154.088 173.374 C 148.199 173.374 143.496 171.536 139.996 167.856 C 136.486 164.17 134.732 159.385 134.732 153.501 C 134.732 147.61 136.486 142.849 139.996 139.212 C 143.496 135.577 148.199 133.753 154.088 133.753 C 162.577 133.749 170.538 138.775 177.99 148.818 Z M 174.226 153.63 C 167.367 146.226 160.784 145.644 158.209 145.439 C 154.152 145.115 147.535 146.819 146.635 147.843 C 145.735 148.867 143.001 151.98 143.205 154.518 C 143.409 157.056 142.79 157.784 145.616 159.997 C 147.935 161.812 150.167 162.727 154.236 162.837 C 158.047 162.94 167.122 162.894 174.226 153.63 Z M 181.626 153.63 C 188.647 162.894 194.704 163.159 199.836 163.344 C 203.497 163.476 206.49 162.274 208.971 160.531 C 211.452 158.788 212.997 157.005 212.851 154.775 C 212.647 151.659 211.86 149.681 210.297 147.741 C 208.734 145.801 206.11 145.392 201.406 145.231 C 197.734 145.105 192.264 146.963 190.617 147.409 C 189.587 147.688 185.8 149.333 181.626 153.63 Z"/>
</svg>