<?xml version="1.0" encoding="utf-8"?>
<svg width="375px" height="360px" viewBox="0 0 3750 3600" preserveAspectRatio="xMidYMid meet" xmlns="http://www.w3.org/2000/svg">
  <path d="M 529 2770 C 524 2770 520 2639 520 2440 L 520 2109 L 551 2092 C 631 2048 792 1935 858 1877 C 1209 1565 1385 1151 1435 522 L 1442 440 L 1643 440 L 1637 607 C 1631 783 1609 935 1564 1112 C 1429 1648 1141 2182 795 2539 C 689 2648 549 2770 529 2770 Z"/>
  <path d="M 1853 3236 C 1879 3245 1927 3249 1981 3247 C 2055 3244 2077 3239 2133 3212 C 2256 3151 2365 2997 2406 2825 C 2428 2733 2427 2575 2405 2490 C 2384 2405 2331 2299 2276 2229 C 2138 2053 1927 2125 1870 2369 C 1852 2445 1854 2567 1874 2628 C 1896 2694 1950 2744 1989 2735 C 2033 2724 2084 2676 2105 2624 C 2115 2597 2125 2574 2126 2572 C 2126 2571 2135 2573 2145 2576 C 2159 2582 2161 2592 2158 2636 C 2152 2705 2113 2765 2057 2791 C 2003 2815 1966 2815 1913 2789 C 1834 2751 1790 2640 1790 2480 C 1790 2224 1932 2055 2130 2073 C 2259 2084 2356 2179 2429 2362 C 2474 2473 2490 2571 2490 2725 L 2490 2860 L 2820 2860 C 3002 2860 3150 2858 3150 2856 C 3150 2854 3111 2807 3064 2753 C 2561 2180 2316 1720 2216 1160 C 2182 966 2150 666 2150 533 C 2150 440 2150 440 2060 440 L 1982 440 L 1976 522 C 1973 568 1963 756 1955 940 C 1938 1312 1922 1462 1886 1601 C 1846 1754 1811 1830 1711 1985 C 1656 2070 1596 2204 1539 2370 C 1497 2490 1496 2500 1496 2615 C 1495 2759 1517 2848 1586 2981 C 1657 3118 1743 3200 1853 3236 Z"/>
  <path d="M 678 2863 C 791 2869 1347 2861 1400 2852 L 1445 2845 L 1440 2790 C 1429 2669 1436 2476 1453 2410 C 1482 2303 1537 2177 1636 1992 C 1745 1787 1802 1660 1825 1575 C 1849 1480 1878 1259 1890 1080 C 1901 901 1903 499 1894 463 C 1888 441 1882 440 1806 440 L 1724 440 L 1701 653 C 1653 1098 1589 1358 1450 1671 C 1297 2014 1122 2263 733 2692 C 660 2772 600 2843 600 2849 C 600 2855 633 2861 678 2863 Z"/>
  <path d="M 3144 2728 L 3225 2810 L 3233 2783 C 3244 2742 3253 2248 3243 2156 L 3235 2076 L 3110 1989 C 2835 1797 2635 1567 2529 1321 C 2457 1154 2427 1006 2395 655 C 2386 562 2374 473 2368 458 C 2359 433 2353 430 2307 430 C 2231 430 2220 444 2220 549 C 2221 1368 2533 2103 3144 2728 Z"/>
</svg>