<!DOCTYPE svg PUBLIC "-//W3C//DTD SVG 20010904//EN" "http://www.w3.org/TR/2001/REC-SVG-20010904/DTD/svg10.dtd">
<svg version="1.0" xmlns="http://www.w3.org/2000/svg" width="245px" height="245px" viewBox="0 0 2450 2450" preserveAspectRatio="xMidYMid meet">
<g id="layer1" fill="#fff" fill-opacity="0" stroke="none">
 <path d="M1138 1576 c-101 -36 -172 -100 -217 -196 -22 -47 -26 -69 -26 -150 0 -80 4 -103 24 -142 58 -119 168 -194 297 -204 38 -3 79 -2 92 3 21 8 18 11 -30 26 -219 71 -309 348 -176 544 34 50 76 84 138 112 l45 20 -55 0 c-30 0 -71 -6 -92 -13z"/>
 </g>
<g id="layer2" fill="#000" stroke="none">
 <path d="M992 2357 c-42 -52 -27 -220 28 -297 21 -29 27 -80 10 -80 -5 0 -10 7 -10 15 0 8 -6 15 -14 15 -20 0 -40 -100 -31 -156 3 -24 19 -69 34 -99 l29 -56 -52 -38 c-28 -21 -61 -43 -73 -49 -32 -18 -95 -14 -121 6 -23 18 -23 19 -6 60 16 41 16 44 -2 64 -27 30 -113 68 -155 68 -20 0 -53 -7 -72 -15 -84 -35 -207 -9 -261 56 -25 29 -46 38 -46 19 0 -29 48 -105 88 -140 45 -40 119 -70 172 -70 19 0 30 -8 39 -26 6 -15 9 -29 7 -32 -3 -3 -8 3 -12 12 -7 20 -34 22 -34 2 0 -7 15 -36 33 -62 37 -56 115 -108 177 -118 38 -6 40 -8 41 -44 4 -88 -10 -157 -35 -174 -39 -27 -123 13 -111 52 6 19 2 20 -59 20 l-65 0 -99 -95 c-99 -95 -161 -134 -217 -136 -16 0 -41 -4 -54 -8 l-24 -6 28 -33 c25 -29 31 -32 86 -32 62 0 160 27 217 60 23 14 38 17 55 10 l22 -9 -22 0 c-12 -1 -24 -5 -27 -10 -8 -12 9 -24 64 -48 l46 -20 88 38 c48 21 96 41 106 44 14 4 29 -13 74 -85 31 -50 56 -94 56 -98 0 -5 -13 -21 -29 -36 -24 -23 -35 -27 -58 -21 -15 3 -31 11 -34 17 -14 21 -41 -3 -65 -58 -38 -87 -56 -178 -59 -299 -3 -105 -4 -110 -30 -132 -14 -13 -25 -30 -23 -38 5 -24 101 28 143 78 35 40 65 117 65 164 0 14 6 23 15 23 8 0 15 -7 15 -15 0 -21 8 -19 81 14 l64 29 35 101 c39 114 29 108 144 88 l70 -12 17 -59 c22 -74 17 -88 -27 -80 -33 6 -34 6 -34 -30 0 -92 58 -189 155 -259 89 -64 110 -109 90 -201 -10 -51 10 -46 39 10 16 29 21 58 21 114 0 69 -3 80 -37 136 -28 45 -38 73 -38 102 0 25 -6 44 -14 49 -20 12 -24 47 -6 50 11 3 21 -12 34 -47 10 -28 23 -49 30 -47 7 2 12 35 14 84 2 64 -2 92 -20 139 -13 32 -23 62 -23 66 0 10 146 118 159 118 6 0 26 -9 43 -20 39 -23 52 -63 29 -88 -14 -16 -14 -20 0 -40 8 -12 39 -34 67 -49 45 -23 70 -27 187 -34 74 -4 150 -8 169 -8 27 -1 42 -10 71 -41 20 -22 39 -37 43 -34 12 12 -26 95 -64 138 -46 52 -104 82 -177 92 -48 6 -55 10 -70 40 -16 35 -42 46 -42 19 0 -19 -14 -19 -34 1 -24 23 -19 34 15 34 21 0 40 -10 61 -31 42 -42 64 -33 43 18 -30 73 -96 123 -159 123 -22 0 -45 9 -62 24 l-28 23 25 84 c25 84 25 84 71 101 44 16 47 16 63 -2 12 -13 15 -28 11 -44 -8 -33 0 -36 63 -20 94 25 170 72 259 162 l84 85 59 -7 c65 -6 76 5 39 39 -31 28 -184 17 -270 -19 -36 -15 -69 -27 -75 -27 -65 6 -70 6 -69 -11 1 -10 -3 -18 -10 -18 -6 0 -21 -3 -33 -6 -34 -9 -29 18 6 39 16 9 48 17 70 17 48 0 51 10 15 39 -34 27 -59 26 -120 -1 -58 -25 -139 -48 -174 -48 -20 0 -35 15 -74 76 -55 85 -56 108 -3 148 l28 21 18 -24 c24 -32 49 -24 88 27 42 56 57 113 47 177 -16 100 -10 167 18 217 15 25 39 53 53 62 25 16 34 46 15 46 -21 0 -92 -42 -131 -77 -45 -40 -71 -85 -89 -153 -7 -24 -23 -57 -36 -73 -13 -16 -24 -37 -24 -48 0 -10 -4 -19 -10 -19 -13 0 -13 4 4 67 8 29 10 55 6 58 -16 10 -76 -22 -113 -60 -37 -38 -61 -91 -72 -158 -5 -29 -10 -37 -23 -33 -9 2 -44 10 -77 16 -33 6 -67 13 -76 16 -33 9 -50 85 -29 124 8 15 17 18 42 13 l31 -6 -6 55 c-7 77 -24 104 -136 226 -111 121 -121 137 -121 186 0 38 -12 53 -28 33z m78 -447 c0 -11 -6 -20 -14 -20 -7 0 -16 9 -19 20 -4 15 0 20 14 20 12 0 19 -7 19 -20z m-430 -337 c0 -14 -18 -17 -44 -7 -14 5 -13 9 1 31 16 24 17 24 30 7 7 -10 13 -24 13 -31z m600 -4 c-62 -28 -104 -62 -138 -112 -133 -196 -43 -473 176 -544 48 -15 51 -18 30 -26 -13 -5 -54 -6 -92 -3 -129 10 -239 85 -297 204 -20 39 -24 62 -24 142 0 81 4 103 26 150 60 128 180 209 309 209 l55 0 -45 -20z m-640 -489 c0 -12 -38 -36 -70 -44 -14 -3 -19 -3 -12 0 6 3 12 17 12 30 0 21 5 24 35 24 19 0 35 -4 35 -10z m303 -423 c6 -17 -29 -60 -43 -52 -15 9 -12 26 7 47 19 21 29 23 36 5z"/>
 </g>

</svg>
