<?xml version="1.0" encoding="utf-8"?>
<svg viewBox="152 138 100 100" xmlns="http://www.w3.org/2000/svg">
  <path fill="#0D0F0F" d="M 249.471 195.071 C 242.91 191.372 238.703 189.52 236.854 189.52 C 235.51 189.52 234.459 190.552 233.7 192.612 C 232.942 194.675 231.43 195.702 229.159 195.702 C 228.233 195.702 226.341 195.366 223.481 194.694 C 221.883 197.134 221.083 198.69 221.083 199.362 C 221.083 200.288 221.772 201.378 223.147 202.643 C 224.522 203.905 225.682 204.534 226.629 204.534 C 227.231 204.534 228.045 204.409 229.078 204.155 C 230.109 203.905 230.799 203.778 231.142 203.778 C 232.175 203.778 232.689 205.671 232.689 209.456 C 232.689 213.073 231.849 218.624 230.166 226.11 C 227.978 217.53 225.666 213.239 223.228 213.239 C 222.89 213.239 222.197 213.491 221.146 213.999 C 220.093 214.501 219.316 214.753 218.812 214.753 C 216.374 214.753 214.187 212.526 212.251 208.065 C 208.382 208.655 206.446 210.632 206.446 213.999 C 206.446 215.683 207.223 217.026 208.782 218.034 C 210.335 219.042 211.116 219.761 211.116 220.179 C 211.116 222.452 207.792 225.943 201.147 230.652 C 197.616 233.175 195.174 234.941 193.831 235.949 C 195.005 234.437 196.183 232.462 197.364 230.021 C 198.708 227.246 199.382 225.101 199.382 223.585 C 199.382 222.745 198.415 221.565 196.48 220.052 C 194.544 218.54 193.58 216.941 193.58 215.259 C 193.58 213.831 194.082 212.066 195.092 209.96 C 193.998 208.698 192.697 208.065 191.182 208.065 C 187.817 208.065 186.137 209.161 186.137 211.345 C 186.137 209.831 186.137 210.966 186.137 214.751 C 186.219 217.527 184.117 218.915 179.826 218.915 C 176.547 218.915 171.035 218.156 163.299 216.644 C 172.047 214.456 176.42 211.933 176.42 209.074 C 176.42 209.41 176.252 208.402 175.916 206.046 C 175.578 203.442 177.43 201.085 181.467 198.983 C 180.709 195.116 178.694 193.177 175.41 193.177 C 174.906 193.177 173.978 194.061 172.635 195.824 C 171.289 197.595 170.028 198.476 168.852 198.476 C 166.832 198.476 164.223 196.29 161.03 191.913 C 159.514 189.729 157.2 186.489 154.089 182.198 C 156.023 183.21 157.958 184.218 159.894 185.229 C 162.417 186.405 164.435 186.995 165.951 186.995 C 167.129 186.995 168.285 185.964 169.42 183.903 C 170.555 181.842 172.049 180.811 173.899 180.811 C 174.153 180.811 175.835 181.315 178.946 182.327 C 180.542 179.888 181.344 178.079 181.344 176.901 C 181.344 175.891 180.733 174.735 179.514 173.43 C 178.293 172.127 177.18 171.475 176.17 171.475 C 175.748 171.475 175.098 171.6 174.213 171.854 C 173.332 172.106 172.68 172.233 172.26 172.233 C 170.744 172.233 169.987 170.34 169.987 166.555 C 169.987 165.545 170.956 159.785 172.891 149.27 C 172.805 150.53 173.352 152.887 174.53 156.334 C 175.96 160.541 177.641 162.643 179.579 162.643 C 179.913 162.643 180.587 162.391 181.597 161.885 C 182.605 161.381 183.404 161.131 183.993 161.131 C 185.927 161.131 187.524 162.225 188.788 164.408 L 190.681 167.814 C 192.447 167.814 193.919 167.185 195.095 165.923 C 196.273 164.661 196.863 163.146 196.863 161.38 C 196.863 159.53 196.086 158.12 194.529 157.153 C 192.97 156.186 192.193 155.45 192.193 154.946 C 192.193 153.178 194.97 150.194 200.521 145.988 C 204.978 142.625 207.88 140.648 209.228 140.058 C 205.611 144.937 203.802 148.509 203.802 150.782 C 203.802 151.96 204.515 153.223 205.947 154.567 C 207.713 156.165 208.722 157.301 208.974 157.973 C 209.814 159.911 209.73 162.559 208.722 165.922 C 210.993 167.522 212.716 168.318 213.896 168.318 C 216.332 168.318 217.554 167.054 217.554 164.533 C 217.554 164.281 217.449 163.482 217.24 162.137 C 217.027 160.793 216.967 160.035 217.049 159.866 C 217.385 158.688 219.699 158.098 223.988 158.098 C 226.679 158.098 232.271 158.856 240.769 160.371 C 238.917 160.875 236.142 161.631 232.443 162.641 C 229.078 163.651 227.394 164.786 227.394 166.047 C 227.394 166.637 227.603 167.645 228.025 169.074 C 228.445 170.506 228.658 171.554 228.658 172.23 C 228.658 173.406 227.9 174.5 226.387 175.507 L 222.096 178.538 C 223.106 180.39 223.778 181.483 224.116 181.817 C 224.956 182.825 226.091 183.331 227.522 183.331 C 228.532 183.331 229.456 182.448 230.297 180.683 C 231.137 178.915 232.485 178.033 234.334 178.033 C 236.604 178.033 239.172 180.137 242.031 184.344 C 243.624 186.704 246.106 190.277 249.471 195.071 Z M 221.464 187.755 C 221.464 182.374 219.485 177.704 215.532 173.749 C 211.579 169.796 206.911 167.819 201.528 167.819 C 196.059 167.819 191.348 169.776 187.397 173.688 C 183.444 177.598 181.424 182.288 181.342 187.754 C 181.256 193.137 183.254 197.784 187.334 201.692 C 191.414 205.604 196.145 207.561 201.527 207.561 C 207.246 207.561 212.019 205.688 215.845 201.946 C 219.675 198.206 221.546 193.476 221.464 187.755 Z M 219.571 187.755 C 219.571 192.886 217.846 197.136 214.397 200.495 C 210.946 203.862 206.657 205.544 201.528 205.544 C 196.565 205.544 192.317 203.821 188.786 200.37 C 185.255 196.925 183.487 192.718 183.487 187.755 C 183.487 182.878 185.272 178.691 188.846 175.202 C 192.424 171.712 196.649 169.964 201.528 169.964 C 206.405 169.964 210.632 171.73 214.208 175.265 C 217.782 178.798 219.571 182.96 219.571 187.755 Z"/>
</svg>