<?xml version="1.0" encoding="utf-8"?>
<svg viewBox="263 101 100 100" xmlns="http://www.w3.org/2000/svg">
  <path fill="#0D0F0F" d="M 358.715 155.932 C 358.715 157.6 358.07 159.096 356.779 160.43 C 355.49 161.762 354.009 162.428 352.343 162.428 C 349.681 162.428 347.72 161.178 346.474 158.68 L 340.603 158.43 C 339.351 158.43 336.894 158.973 333.232 160.055 C 329.318 161.137 327.068 162.012 326.486 162.678 C 325.57 163.676 324.822 166.01 324.238 169.674 C 323.736 172.672 323.49 174.879 323.49 176.295 C 323.49 178.541 323.842 180.188 324.551 181.229 C 325.26 182.27 326.717 183.145 328.922 183.852 C 331.127 184.559 332.483 184.956 332.983 185.039 C 333.315 185.039 333.856 184.998 334.608 184.914 L 336.106 184.914 C 337.186 184.914 338.311 185.084 339.479 185.414 C 341.145 185.914 341.854 186.58 341.604 187.414 C 340.436 187.248 338.397 187.498 335.483 188.164 L 338.979 189.912 C 338.979 190.912 337.563 191.41 334.733 191.41 C 333.981 191.41 332.962 191.244 331.67 190.912 C 330.379 190.576 329.525 190.412 329.111 190.412 L 327.486 190.412 C 327.404 191.244 327.152 192.492 326.736 194.158 C 325.318 194.074 323.656 193.24 321.74 191.66 C 319.822 190.08 318.617 189.287 318.119 189.287 C 317.617 189.287 316.908 190.08 315.994 191.66 C 315.076 193.24 314.619 194.324 314.619 194.908 C 313.537 194.324 312.623 193.24 311.869 191.66 C 311.537 190.576 311.162 189.494 310.748 188.412 C 309.916 188.496 308.373 190.246 306.127 193.66 L 305.5 193.66 C 305.334 193.408 304.705 191.66 303.627 188.412 C 301.045 187.58 298.631 187.164 296.381 187.164 C 295.299 187.164 293.633 187.414 291.385 187.912 L 287.889 187.664 C 288.387 187.164 289.844 186.207 292.26 184.791 C 295.09 183.125 297.256 182.291 298.756 182.291 C 299.002 182.291 299.334 182.334 299.756 182.416 C 300.17 182.502 300.506 182.541 300.756 182.541 C 301.334 182.541 302.274 182.229 303.565 181.603 C 304.856 180.98 305.604 180.417 305.811 179.919 C 306.022 179.415 306.127 178.126 306.127 176.044 C 306.127 171.298 304.877 167.759 302.377 165.427 C 300.209 163.345 296.631 161.847 291.633 160.929 C 290.301 165.675 286.553 168.052 280.393 168.052 C 278.393 168.052 276.395 166.845 274.397 164.429 C 272.401 162.013 271.401 159.806 271.401 157.808 C 271.401 154.726 272.688 152.187 275.27 150.185 C 273.19 148.023 272.149 145.816 272.149 143.568 C 272.149 141.484 272.792 139.654 274.085 138.068 C 275.376 136.49 277.062 135.572 279.144 135.32 C 278.978 132.658 279.851 130.824 281.767 129.824 C 280.851 128.91 280.394 127.287 280.394 124.955 C 280.394 122.207 281.31 119.916 283.142 118.084 C 284.972 116.252 287.263 115.334 290.011 115.334 C 293.011 115.334 295.468 116.379 297.382 118.459 C 299.798 110.215 305.003 106.092 312.995 106.092 C 317.159 106.092 320.823 107.758 323.989 111.09 C 325.155 112.338 325.737 113.006 325.737 113.086 C 324.737 113.086 325.239 112.898 327.237 112.525 C 329.233 112.15 330.69 111.962 331.61 111.962 C 334.856 111.962 337.729 113.169 340.229 115.585 C 342.393 117.751 343.893 120.497 344.727 123.829 C 345.307 123.913 346.225 124.161 347.475 124.577 C 349.305 125.497 350.223 127.075 350.223 129.325 C 350.223 129.743 349.887 130.534 349.223 131.698 C 354.551 134.696 357.217 138.86 357.217 144.19 C 357.217 145.688 356.635 147.774 355.469 150.437 C 357.635 151.684 358.715 153.518 358.715 155.932 Z M 307.248 161.428 L 307.248 159.805 C 307.248 157.891 306.312 156.141 304.439 154.559 C 302.564 152.977 300.669 152.186 298.755 152.186 C 296.421 152.186 294.259 152.727 292.259 153.807 C 296.672 153.559 301.67 156.1 307.248 161.428 Z M 305.002 145.939 C 303.752 144.521 302.67 143.064 301.752 141.566 C 298.254 142.482 296.506 143.523 296.506 144.687 C 297.506 144.607 298.963 144.792 300.877 145.251 C 302.791 145.71 304.168 145.939 305.002 145.939 Z M 312.623 142.066 L 312.623 136.57 C 310.623 136.238 309.412 136.07 309 136.07 L 309 137.943 L 312.623 142.066 Z M 328.861 138.568 C 327.861 138.152 325.986 137.318 323.24 136.07 L 323.24 146.812 C 327.152 144.562 329.025 141.814 328.861 138.568 Z M 335.728 153.309 L 332.982 149.936 C 331.318 151.103 329.63 152.29 327.921 153.497 C 326.212 154.704 324.735 156.06 323.489 157.557 C 327.236 155.555 331.318 154.143 335.728 153.309 Z"/>
</svg>