<?xml version="1.0" encoding="utf-8"?>
<svg width="375px" height="360px" viewBox="0 0 3750 3600" preserveAspectRatio="xMidYMid meet" xmlns="http://www.w3.org/2000/svg">
  <path d="M 1670 3214 C 1651 3212 1612 3208 1584 3204 L 1533 3199 L 1527 2912 C 1519 2522 1501 2451 1381 2333 C 1243 2197 1033 2157 862 2235 C 722 2299 664 2410 645 2651 C 636 2766 631 2772 587 2712 C 513 2612 478 2490 479 2335 C 479 2160 525 2047 640 1936 C 718 1860 817 1808 925 1785 C 1012 1767 1192 1766 1285 1784 C 1324 1792 1357 1796 1359 1794 C 1365 1788 1343 1703 1308 1595 C 1231 1362 1009 975 822 750 C 779 698 689 598 622 529 C 499 401 493 390 552 390 C 579 390 762 469 890 537 C 1328 769 1605 1037 1798 1418 C 1833 1485 1864 1540 1868 1540 C 1872 1540 1900 1488 1930 1423 C 2078 1105 2329 842 2695 623 C 2909 494 3111 410 3204 410 L 3250 410 L 3234 435 C 3225 449 3181 490 3136 527 C 2967 667 2792 868 2673 1061 C 2616 1152 2517 1351 2471 1468 C 2426 1581 2355 1798 2345 1852 L 2338 1889 L 2406 1845 C 2497 1785 2569 1759 2662 1753 C 2873 1738 3111 1869 3213 2057 C 3293 2206 3302 2425 3233 2600 C 3207 2665 3151 2760 3139 2760 C 3127 2760 3119 2709 3110 2592 C 3103 2498 3096 2467 3071 2415 C 2964 2185 2697 2121 2491 2276 C 2400 2344 2323 2461 2263 2618 C 2219 2737 2209 2811 2212 3002 C 2214 3099 2212 3181 2208 3185 C 2192 3202 2104 3210 1910 3214 C 1797 3216 1689 3216 1670 3214 Z M 2139 3118 C 2144 3105 2148 2992 2148 2865 C 2150 1974 2416 1185 2890 667 C 2959 591 2969 568 2939 562 C 2920 559 2584 770 2462 861 C 2156 1091 1969 1383 1915 1713 C 1906 1770 1900 1874 1900 1985 C 1900 2251 1875 2378 1785 2578 C 1733 2693 1710 2817 1729 2879 C 1741 2921 1799 2986 1837 3001 C 1900 3025 1980 3000 2015 2947 C 2053 2889 2042 2790 1990 2729 C 1963 2696 1962 2696 1937 2713 C 1895 2740 1870 2772 1870 2798 C 1870 2812 1884 2847 1901 2877 C 1918 2907 1929 2934 1926 2937 C 1913 2951 1831 2900 1814 2869 C 1781 2804 1807 2716 1874 2666 C 1915 2635 2019 2636 2054 2669 C 2091 2704 2115 2775 2114 2845 C 2111 2982 2020 3080 1895 3080 C 1829 3080 1775 3053 1723 2997 C 1626 2891 1620 2781 1702 2596 C 1769 2444 1818 2298 1831 2210 C 1845 2108 1837 1821 1815 1696 C 1755 1350 1511 1016 1135 765 C 1034 698 814 577 801 582 C 795 583 818 619 851 660 C 1128 1004 1334 1406 1454 1835 C 1548 2174 1600 2571 1600 2956 C 1600 3050 1603 3130 1607 3133 C 1610 3137 1730 3140 1872 3140 L 2130 3140 L 2139 3118 Z M 3212 2397 C 3235 2227 3195 2103 3081 1990 C 2957 1867 2808 1803 2673 1813 C 2540 1823 2389 1916 2324 2026 C 2289 2085 2261 2206 2255 2328 L 2249 2435 L 2270 2410 C 2362 2302 2397 2267 2457 2227 C 2614 2119 2784 2102 2934 2178 C 3035 2228 3132 2346 3170 2463 C 3187 2517 3198 2499 3212 2397 Z M 714 2265 C 898 2083 1164 2087 1419 2275 L 1483 2322 L 1476 2271 C 1460 2149 1419 1974 1402 1950 C 1372 1910 1306 1864 1243 1839 C 1161 1806 1022 1806 929 1838 C 838 1869 711 1950 656 2010 C 551 2128 517 2284 561 2445 L 572 2485 L 612 2405 C 639 2351 672 2306 714 2265 Z"/>
  <path d="M 1607 3133 C 1603 3130 1600 3050 1600 2956 C 1600 2051 1348 1278 851 660 C 818 619 795 583 801 582 C 814 577 1034 698 1135 765 C 1445 972 1677 1250 1771 1526 C 1787 1574 1807 1650 1815 1696 C 1837 1821 1845 2108 1831 2210 C 1818 2298 1769 2444 1702 2596 C 1620 2781 1626 2891 1723 2997 C 1775 3053 1829 3080 1895 3080 C 2020 3080 2111 2982 2114 2845 C 2115 2775 2091 2704 2054 2669 C 2019 2636 1915 2635 1874 2666 C 1807 2716 1781 2804 1814 2869 C 1831 2900 1913 2951 1926 2937 C 1929 2934 1918 2907 1901 2877 C 1884 2847 1870 2812 1870 2798 C 1870 2772 1895 2740 1937 2713 C 1962 2696 1963 2696 1990 2729 C 2042 2790 2053 2889 2015 2947 C 1980 3000 1900 3025 1837 3001 C 1799 2986 1741 2921 1729 2879 C 1710 2817 1733 2693 1785 2578 C 1875 2378 1900 2251 1900 1985 C 1900 1874 1906 1770 1915 1713 C 1969 1383 2156 1091 2462 861 C 2584 770 2920 559 2939 562 C 2969 568 2959 591 2890 667 C 2416 1185 2150 1974 2148 2865 C 2148 2992 2144 3105 2139 3118 L 2130 3140 L 1872 3140 C 1730 3140 1610 3137 1607 3133 Z"/>
  <path d="M 3170 2463 C 3132 2346 3035 2228 2934 2178 C 2784 2102 2614 2119 2457 2227 C 2397 2267 2362 2302 2270 2410 L 2249 2435 L 2255 2328 C 2261 2206 2289 2085 2324 2026 C 2389 1916 2540 1823 2673 1813 C 2808 1803 2957 1867 3081 1990 C 3195 2103 3235 2227 3212 2397 C 3198 2499 3187 2517 3170 2463 Z"/>
  <path d="M 561 2445 C 517 2284 551 2128 656 2010 C 711 1950 838 1869 929 1838 C 1022 1806 1161 1806 1243 1839 C 1306 1864 1372 1910 1402 1950 C 1419 1974 1460 2149 1476 2271 L 1483 2322 L 1419 2275 C 1164 2087 898 2083 714 2265 C 672 2306 639 2351 612 2405 L 572 2485 L 561 2445 Z"/>
</svg>