<?xml version="1.0" encoding="utf-8"?>
<svg width="310px" height="310px" viewBox="0 0 3100 3100" preserveAspectRatio="xMidYMid meet" xmlns="http://www.w3.org/2000/svg">
  <path d="M 1570 2811 C 1570 2805 1603 2782 1643 2759 C 1754 2694 1789 2666 2009 2461 C 2077 2397 2138 2341 2144 2335 C 2320 2173 2494 2084 2657 2073 C 2736 2067 2740 2068 2740 2088 C 2740 2113 2680 2232 2628 2310 C 2483 2529 2230 2702 1957 2769 C 1826 2801 1570 2829 1570 2811 Z"/>
  <path d="M 975 2686 C 827 2644 640 2552 640 2521 C 640 2518 729 2515 838 2514 C 1010 2514 1046 2511 1120 2491 C 1254 2455 1299 2440 1399 2394 C 1585 2308 1728 2203 1970 1979 C 2028 1926 2098 1864 2125 1843 C 2277 1724 2468 1651 2629 1650 C 2716 1650 2820 1669 2827 1686 C 2832 1701 2804 1879 2790 1916 C 2783 1934 2771 1938 2697 1943 C 2438 1963 2229 2086 1860 2435 C 1737 2552 1636 2613 1471 2672 C 1396 2699 1054 2708 975 2686 Z"/>
  <path d="M 670 2379 C 557 2354 469 2310 427 2257 C 380 2198 320 2098 320 2077 C 320 2062 325 2062 373 2082 C 519 2141 584 2153 780 2153 C 998 2154 1062 2141 1225 2061 C 1357 1996 1450 1931 1620 1780 C 1961 1479 2047 1417 2217 1348 L 2325 1305 L 2535 1307 C 2655 1308 2757 1313 2773 1319 C 2807 1332 2817 1358 2826 1454 L 2833 1530 L 2722 1530 C 2580 1530 2478 1545 2376 1579 C 2196 1640 2115 1694 1890 1902 C 1600 2169 1451 2267 1217 2345 C 1041 2403 835 2416 670 2379 Z"/>
  <path d="M 699 2029 C 501 2010 312 1898 275 1780 C 238 1660 247 1391 291 1262 C 369 1036 584 923 846 971 C 966 993 1063 1073 1126 1204 C 1176 1307 1186 1366 1172 1464 C 1149 1621 1051 1764 922 1827 C 850 1862 738 1866 678 1836 C 623 1809 565 1747 533 1682 C 493 1599 489 1483 523 1420 C 536 1395 566 1362 589 1345 C 629 1317 638 1315 724 1315 C 808 1315 820 1317 859 1343 C 928 1389 960 1460 946 1535 C 937 1583 893 1630 855 1633 L 825 1635 L 825 1567 C 825 1493 817 1480 768 1480 C 728 1480 711 1490 695 1521 C 668 1571 676 1609 720 1651 C 791 1719 901 1712 969 1635 C 1004 1595 1015 1550 1007 1471 C 999 1373 945 1298 851 1249 C 788 1217 682 1218 606 1253 C 538 1284 462 1358 432 1422 C 403 1485 401 1607 429 1680 C 466 1778 561 1873 663 1913 C 730 1940 862 1941 935 1915 C 1003 1891 1088 1831 1135 1775 C 1182 1717 1257 1588 1272 1538 C 1278 1517 1284 1500 1286 1500 C 1288 1500 1306 1510 1327 1523 C 1381 1555 1519 1554 1605 1520 C 1738 1469 1844 1371 1918 1231 C 1961 1151 1961 1151 1993 1158 C 2011 1162 2070 1165 2125 1165 C 2216 1165 2231 1162 2290 1134 C 2372 1095 2424 1043 2464 960 C 2494 897 2495 890 2495 762 L 2495 628 L 2529 667 C 2575 720 2661 851 2703 935 C 2735 1000 2780 1127 2780 1154 C 2780 1162 2732 1165 2613 1165 C 2437 1165 2383 1173 2250 1218 C 2038 1289 1868 1403 1590 1665 C 1435 1811 1372 1862 1280 1913 C 1191 1962 1023 2017 920 2029 C 827 2041 823 2041 699 2029 Z"/>
  <path d="M 1360 1418 C 1307 1391 1289 1358 1230 1183 C 1188 1058 1188 1030 1232 982 C 1293 917 1451 893 1535 937 C 1683 1015 1698 1200 1560 1241 C 1504 1258 1486 1241 1494 1182 C 1501 1128 1480 1083 1443 1074 C 1393 1061 1356 1109 1365 1174 C 1373 1228 1396 1263 1444 1294 C 1480 1318 1493 1321 1547 1318 C 1598 1315 1616 1309 1647 1283 C 1707 1235 1725 1196 1724 1120 C 1721 969 1611 837 1476 823 C 1364 811 1220 860 1155 931 L 1122 968 L 1063 929 C 962 861 897 845 735 846 C 619 846 584 850 530 868 C 459 892 430 895 430 880 C 430 865 612 692 691 633 C 775 570 849 530 957 493 C 1027 469 1049 466 1175 465 C 1293 465 1326 469 1385 487 C 1584 550 1758 725 1817 922 C 1826 953 1833 1016 1834 1070 C 1835 1154 1832 1171 1808 1220 C 1779 1279 1717 1348 1659 1387 C 1576 1442 1436 1456 1360 1418 Z"/>
  <path d="M 2037 1066 C 2017 1058 1992 1046 1983 1039 C 1943 1005 1862 765 1874 715 C 1887 664 2046 629 2125 660 C 2170 677 2218 717 2236 752 C 2262 802 2250 877 2211 912 C 2175 944 2154 947 2121 924 C 2101 909 2098 901 2102 859 C 2108 799 2091 770 2050 770 C 2007 770 1986 807 1994 867 C 2013 1008 2205 1044 2297 924 C 2335 873 2341 782 2310 719 C 2282 663 2236 614 2185 587 C 2152 569 2129 565 2045 565 C 1941 565 1904 574 1841 617 L 1806 639 L 1761 597 C 1690 531 1592 465 1499 420 C 1423 384 1377 371 1267 355 C 1246 351 1232 345 1235 341 C 1243 328 1292 321 1458 310 C 1812 286 2103 353 2257 494 C 2357 585 2422 764 2398 888 C 2386 952 2335 1019 2271 1052 C 2227 1075 2205 1080 2146 1080 C 2107 1079 2058 1073 2037 1066 Z"/>
</svg>