<?xml version="1.0" encoding="utf-8"?>
<svg viewBox="199 201 100 100" xmlns="http://www.w3.org/2000/svg">
  <path fill="#0D0F0F" d="M 267.88 282.935 C 263.093 287.806 257.196 290.241 250.192 290.241 C 242.331 290.241 236.094 287.552 231.481 282.168 C 227.122 277.042 224.944 270.507 224.944 262.563 C 224.944 254.02 228.661 244.277 236.094 233.339 C 242.158 224.37 249.293 216.508 257.496 209.758 C 256.299 215.227 255.703 219.113 255.703 221.421 C 255.703 226.719 257.367 231.887 260.699 236.928 C 264.801 242.908 267.918 247.354 270.056 250.257 C 273.388 255.299 275.054 260.211 275.054 264.993 C 275.056 272.086 272.663 278.068 267.88 282.935 Z M 267.751 255.572 C 266.47 252.712 264.974 250.811 263.265 249.869 C 263.521 250.383 263.65 251.109 263.65 252.049 C 263.65 253.844 263.138 256.406 262.111 259.738 L 260.447 264.866 C 260.447 267.855 261.939 269.352 264.931 269.352 C 268.091 269.352 269.673 267.257 269.673 263.07 C 269.673 260.936 269.033 258.439 267.751 255.572 Z"/>
</svg>